<?xml version="1.0" encoding="utf-8"?>
<!-- Generator: Adobe Illustrator 24.2.3, SVG Export Plug-In . SVG Version: 6.00 Build 0)  -->
<svg version="1.1" id="Layer_1" xmlns="http://www.w3.org/2000/svg" xmlns:xlink="http://www.w3.org/1999/xlink" x="0px" y="0px"
	 viewBox="0 0 96 48" style="enable-background:new 0 0 96 48;" xml:space="preserve">
<style type="text/css">
	.st0{fill:#F36403;}
</style>
<g>
	<path class="st0" d="M25.6,21.1c-1,0-1.9,0-2.9,0c-0.9,0-1.8,0-2.7,0c0.1-0.2,0.1-0.3,0.2-0.5c1.3-2.6,2.6-5.2,4-7.8
		c0.1-0.3,0.3-0.4,0.6-0.4c16.9,0,33.7,0,50.6,0c2.1,0,3.8,0.8,4.9,2.8c0.5,0.9,0.6,1.8,0.6,2.8c0,7.3,0,14.6,0,22
		c0,0.2,0,0.4-0.1,0.6c-0.6,1.4-1.3,2.8-1.9,4.3c-0.1,0.3-0.3,0.4-0.6,0.4c-0.9,0-1.9,0-2.9,0c0-0.2,0-0.3,0-0.5
		c0-1.3,0.1-2.6-0.1-3.9c-0.3-2.5-1.7-4.2-4.1-4.8c-2.4-0.7-4.7-0.4-6.7,1.2c-1.3,1-1.8,2.4-1.9,4c-0.1,1.2,0,2.4,0,3.5
		c0,0.1,0,0.3,0,0.5c-10.3,0-20.6,0-30.9,0c0-0.2,0-0.3,0-0.5c0-1.3,0.1-2.7-0.1-4c-0.3-2.6-1.8-4.2-4.3-4.7
		c-2.3-0.6-4.5-0.3-6.4,1.3c-1.2,1-1.8,2.4-1.9,4c0,1.3,0,2.7,0,4c-0.6,0-1.1,0-1.7,0c-0.1,0-0.2-0.1-0.3-0.2c-1-2.2-1.8-4.4-2-6.8
		c-0.1-1,0.1-1.9,0.3-2.9c0.7-2.4,2.2-4.3,3.7-6.1c2-2.6,4.1-5.1,6.2-7.6C25.4,21.4,25.5,21.3,25.6,21.1z M39,19.7
		c0,7.3,0,14.5,0,21.8c3.6,0,7.3,0,10.9,0c0-7.3,0-14.5,0-21.8C46.2,19.7,42.6,19.7,39,19.7z M77.1,28.8c0-3,0-6,0-9
		c-5.5,0-10.9,0-16.3,0c0,3,0,6,0,9C66.3,28.8,71.7,28.8,77.1,28.8z M22.6,29.7c3.8-0.3,7.5-0.6,11.3-0.9c0.4-3,0.9-6,1.3-9.1
		c-1.7,0-3.4,0-5.1,0c-0.1,0-0.3,0.2-0.4,0.3c-1.2,1.7-2.4,3.3-3.7,5C24.9,26.5,23.8,28,22.6,29.7z M26.3,17.9c1.9,0,3.6,0,5.4,0
		c0-1.2,0-2.4,0-3.6c-1.3,0-2.6,0-3.9,0c-0.1,0-0.2,0.1-0.3,0.2C27.1,15.6,26.7,16.7,26.3,17.9z"/>
	<path class="st0" d="M68.9,46.9c-2.6,0-4.5-2.1-4.5-4.7c0-2.4,2.2-4.4,4.6-4.4c2.5,0,4.5,2.1,4.5,4.6
		C73.5,44.9,71.4,46.9,68.9,46.9z M69,39.8c-1.5,0-2.7,1.2-2.7,2.7s1.2,2.8,2.7,2.8s2.7-1.2,2.7-2.7S70.5,39.8,69,39.8z"/>
	<path class="st0" d="M29.9,42.5c0,2.5-2.1,4.5-4.5,4.5c-2.5,0-4.5-2.1-4.5-4.5c0-2.5,2.1-4.5,4.5-4.5C27.8,37.9,29.9,40,29.9,42.5z
		 M28.1,42.5c0-1.5-1.2-2.7-2.7-2.7s-2.7,1.2-2.7,2.7s1.2,2.8,2.7,2.8C26.8,45.2,28.1,44,28.1,42.5z"/>
	<path class="st0" d="M48,39.7c-2.4,0-4.8,0-7.2,0c0-3.6,0-7.2,0-10.9c2.4,0,4.8,0,7.2,0C48,32.5,48,36.1,48,39.7z"/>
</g>
</svg>
