<?xml version="1.0" encoding="utf-8"?>
<!-- Generator: Adobe Illustrator 24.2.3, SVG Export Plug-In . SVG Version: 6.00 Build 0)  -->
<svg version="1.1" id="Layer_1" xmlns="http://www.w3.org/2000/svg" xmlns:xlink="http://www.w3.org/1999/xlink" x="0px" y="0px"
	 viewBox="0 0 96 48" style="enable-background:new 0 0 96 48;" xml:space="preserve">
<style type="text/css">
	.st0{fill:none;}
	.st1{fill:#F36403;}
</style>
<path class="st0" d="M0,0h96v48H0V0z"/>
<path class="st1" d="M43.5,34c-3.6,0-6.5,2.9-6.5,6.5s2.9,6.5,6.5,6.5l0,0c3.6,0,6.5-2.9,6.5-6.5S47.1,34,43.5,34z M43.5,44
	c-1.9,0-3.5-1.6-3.5-3.5s1.6-3.5,3.5-3.5s3.5,1.6,3.5,3.5S45.4,44,43.5,44z M63.5,34c-3.6,0-6.5,2.9-6.5,6.5s2.9,6.5,6.5,6.5l0,0
	c3.6,0,6.5-2.9,6.5-6.5S67.1,34,63.5,34z M63.5,44c-1.9,0-3.5-1.6-3.5-3.5s1.6-3.5,3.5-3.5s3.5,1.6,3.5,3.5S65.4,44,63.5,44z
	 M63.8,31.9c0.6,0,1.7,0,2.2,0.1V22h-5L60,5c0,0-12.3,0-16,0l-4.1,21H37V0h-3v22h-2v18H19l-2,2h18c0-0.3,0-1.7,0-2
	c0-4.9,3.5-8.1,8.3-8.1c4.2,0,7.7,3.2,8.6,7.1h3.2C56.1,35.1,59.6,31.9,63.8,31.9z M52,23l-1.7,2h-8.1L46,6.8h12L59,23H52z M57,15
	h-1.4L55,20h-5c-1.4,0,0,2,0,2h8L57,15z"/>
</svg>
