<?xml version="1.0" encoding="utf-8"?>
<!-- Generator: Adobe Illustrator 24.2.3, SVG Export Plug-In . SVG Version: 6.00 Build 0)  -->
<svg version="1.1" id="Layer_1" xmlns="http://www.w3.org/2000/svg" xmlns:xlink="http://www.w3.org/1999/xlink" x="0px" y="0px"
	 viewBox="0 0 96 48" style="enable-background:new 0 0 96 48;" xml:space="preserve">
<style type="text/css">
	.st0{fill:none;}
	.st1{fill:#F36403;}
</style>
<path class="st0" d="M0,0h96v48H0V0z"/>
<path class="st1" d="M35,37c-2.8,0-5,2.2-5,5s2.2,5,5,5s5-2.2,5-5S37.8,37,35,37z M35,45c-1.7,0-3-1.3-3.1-2.9c0-1.7,1.3-3,2.9-3.1
	h0.1c1.7,0,3,1.4,2.9,3.1C37.9,43.7,36.6,45,35,45z M72,37c-2.8,0-5,2.2-5,5s2.2,5,5,5s5-2.2,5-5S74.8,37,72,37z M72,45
	c-1.7,0-3-1.3-3.1-2.9c0-1.7,1.3-3,2.9-3.1h0.1c1.7,0,3,1.4,2.9,3.1C74.9,43.7,73.6,45,72,45z M22,11v19h61V11H22z M22,37H12v2h2v4
	h2v-4h11l2.5-1.1c1.1-1.9,3.1-3.2,5.5-3.2s4.9,1.4,6,3.3h25c1.1-1.9,3.6-3.3,6-3.3s4.9,1.4,6,3.3h5v-7H22V37z"/>
</svg>
