<?xml version="1.0" encoding="utf-8"?>
<!-- Generator: Adobe Illustrator 24.2.3, SVG Export Plug-In . SVG Version: 6.00 Build 0)  -->
<svg version="1.1" id="Layer_1" xmlns="http://www.w3.org/2000/svg" xmlns:xlink="http://www.w3.org/1999/xlink" x="0px" y="0px"
	 viewBox="0 0 96 48" style="enable-background:new 0 0 96 48;" xml:space="preserve">
<style type="text/css">
	.st0{fill:none;}
	.st1{fill:#F36403;}
</style>
<path class="st0" d="M0,0h96v48H0V0z"/>
<path class="st1" d="M22.5,38c-2.5,0-4.5,1.9-4.6,4.4s1.9,4.5,4.4,4.6h0.1c2.5,0,4.5-2.1,4.4-4.6C26.9,40,24.9,38,22.5,38z M22.5,45
	c-1.4,0-2.5-1.1-2.5-2.5l0,0c0-1.4,1.1-2.5,2.5-2.5s2.5,1.1,2.5,2.5S23.9,45,22.5,45z M71.5,38c-2.5,0-4.5,1.9-4.6,4.4
	s1.9,4.5,4.4,4.6h0.1c2.5,0,4.5-2.1,4.4-4.6C75.9,40,73.9,38,71.5,38z M71.5,45c-1.4,0-2.5-1.1-2.5-2.5l0,0c0-1.4,1.1-2.5,2.5-2.5
	s2.5,1.1,2.5,2.5S72.9,45,71.5,45z M9,36v-4l3.4-11H20l2,7.9L13.8,33H91l-1-12l-2-2c0,0-70.9,0-71.9,0c-2.4,0-4.7,0.4-5.9,1.2
	c-1.7,1.1-4.4,3.5-4.6,3.7C5.5,24.1,4,25.3,4,26.5c0,0.5,1.9,0.6,2,0.3c0.2-0.6,0.7-2,0.7-2l3.3-2.4c-1.1,3.1-3,9-3,9V40l3,2h6
	c0-3.4,3.1-6,6.5-6s6.5,2.6,6.5,6h36c0-3.4,3.1-6,6.5-6s6.4,2.6,6.5,6l13-2v-6H12.5L9,36z M88,21v6l-3,2H25l-2-8H88z"/>
</svg>
