<?xml version="1.0" encoding="utf-8"?>
<!-- Generator: Adobe Illustrator 24.2.3, SVG Export Plug-In . SVG Version: 6.00 Build 0)  -->
<svg version="1.1" id="Layer_1" xmlns="http://www.w3.org/2000/svg" xmlns:xlink="http://www.w3.org/1999/xlink" x="0px" y="0px"
	 viewBox="0 0 96 48" style="enable-background:new 0 0 96 48;" xml:space="preserve">
<style type="text/css">
	.st0{fill:none;}
	.st1{fill:#F36403;}
</style>
<path class="st0" d="M0,0h96v48H0V0z"/>
<path class="st1" d="M31,31c-4.4,0-8,3.6-8,8l0,0c0,4.4,3.6,8,8,8s8-3.6,8-8S35.4,31,31,31L31,31z M31,43c-2.2,0-4-1.8-4-4
	s1.8-4,4-4s4,1.8,4,4l0,0C35,41.2,33.2,43,31,43L31,43z M65,25c-6.1,0-11,4.9-11,11s4.9,11,11,11s11-4.9,11-11S71.1,25,65,25z
	 M65,42c-3.3,0-6-2.7-6-6s2.7-6,6-6c3.3,0,6,2.7,6,6S68.3,42,65,42z M64.3,23c3.8,0,7.4,0.3,9.7,3h3l-4-5L67.9,3H55l-8.5,12.9
	l-4.5,1V8l-5-4v4l3,1.7v7.8l-20.2,4.6c0,0-1.8,4-1.8,5.9v7l2,2h1c0.9-4.4,5.4-8.1,10-8.1s8.1,2.7,9,7.1h3v3h6v-3h3v-1.7
	C52,27.3,57.3,23,64.3,23z M64,6h2.7l2.9,13H64V6z M48,19l7.7-13H62v13C61.3,19,48,19,48,19z"/>
</svg>
