<?xml version="1.0" encoding="utf-8"?>
<!-- Generator: Adobe Illustrator 24.2.3, SVG Export Plug-In . SVG Version: 6.00 Build 0)  -->
<svg version="1.1" id="Layer_1" xmlns="http://www.w3.org/2000/svg" xmlns:xlink="http://www.w3.org/1999/xlink" x="0px" y="0px"
	 viewBox="0 0 96 48" style="enable-background:new 0 0 96 48;" xml:space="preserve">
<style type="text/css">
	.st0{fill:none;}
	.st1{fill:#F36403;}
</style>
<path class="st0" d="M0,0h96v48H0V0z"/>
<path class="st1" d="M23,35c-3.3,0-6,2.7-6,6s2.7,6,6,6s6-2.7,6-6S26.3,35,23,35z M23,44c-1.7,0-3-1.3-3-3s1.3-3,3-3s3,1.3,3,3
	S24.7,44,23,44z M71,35c-3.3,0-6,2.7-6,6s2.7,6,6,6s6-2.7,6-6S74.3,35,71,35z M71,44c-1.7,0-3-1.3-3-3s1.3-3,3-3s3,1.3,3,3
	S72.7,44,71,44z M81.7,8c0,0-43,0.2-44.4,0.3S33,10.1,33,10.1L17.7,23.5L10.3,29h5l-1.8,4H9c0,0-1,0.1-1.5,0.8s0.6,6.7,0.6,6.7
	l1.9,0.4h5c0.1-4.4,3.7-7.9,8.2-7.8c4.3,0.1,7.8,3.5,7.8,7.8h32c0.1-4.4,3.7-7.9,8.2-7.8c4.3,0.1,7.8,3.5,7.8,7.8h2.3
	c0,0,1.9,0.4,3.1-0.9c1.1-1.1,1.5-3.3,1.5-3.3L86,35V11.4C85.1,8.4,81.7,8,81.7,8z M40,24H24l10.7-10H40V24z"/>
</svg>
