
<?xml version="1.0" encoding="utf-8"?>
<!-- Generator: Adobe Illustrator 24.2.3, SVG Export Plug-In . SVG Version: 6.00 Build 0)  -->
<svg version="1.1" id="Layer_1" xmlns="http://www.w3.org/2000/svg" xmlns:xlink="http://www.w3.org/1999/xlink" x="0px" y="0px"
	 viewBox="0 0 48 48" style="enable-background:new 0 0 48 48;" xml:space="preserve">
<style type="text/css">
	.st0{fill:#FF5D25;}
</style>
<g>
	<path class="st0" d="M37.3,35.2c-3,0-5.4-2.4-5.4-5.4c0-3,2.4-5.4,5.4-5.4s5.4,2.4,5.4,5.4C42.7,32.7,40.3,35.2,37.3,35.2z
		 M37.3,26.7c-1.7,0-3,1.4-3,3c0,1.7,1.4,3,3,3s3-1.4,3-3C40.3,28.1,39,26.7,37.3,26.7z"/>
	<path class="st0" d="M37.4,18.3h-3.9l-2,3.6h-3.3l-2-3.6h-7.5h-0.2v-5.5l-6.1,5.6v2.4l1.3,2.1c0.7,0.3,1.3,0.7,1.8,1.1l-1.6,1.4
		c-0.9-0.7-2-1.1-3.2-1.1c-3,0-5.4,2.4-5.4,5.4c0,3,2.4,5.4,5.4,5.4c3,0,5.4-2.4,5.4-5.4c0-1.2-0.4-2.2-1-3.1l1.6-1.3
		c1.5,2,1.4,4.3,1.4,4.3l0.7,0.6h10.1c0-9.7,9.6-7.2,9.6-7.2l0.8-1L37.4,18.3z M13.7,29.7c0,1.7-1.4,3-3,3c-1.7,0-3-1.4-3-3
		c0-1.7,1.4-3,3-3c0.5,0,0.9,0.1,1.3,0.3l-1.8,1.5l1.1,1.3l2-1.6C13.6,28.6,13.7,29.2,13.7,29.7z"/>
</g>
</svg>
